<?xml version="1.0" encoding="UTF-8" standalone="no"?>
<!DOCTYPE svg PUBLIC "-//W3C//DTD SVG 1.1//EN" "http://www.w3.org/Graphics/SVG/1.1/DTD/svg11.dtd">
<svg width="100%" height="100%" viewBox="0 0 64 64" version="1.1" xmlns="http://www.w3.org/2000/svg" xmlns:xlink="http://www.w3.org/1999/xlink" xml:space="preserve" xmlns:serif="http://www.serif.com/" style="fill-rule:evenodd;clip-rule:evenodd;stroke-linejoin:round;stroke-miterlimit:2;">
    <g transform="matrix(0.874375,0,0,1,1.87205,-0.228282)">
        <path d="M59.393,6.545C59.393,3.957 56.989,1.855 54.029,1.855L14.884,1.855C11.924,1.855 9.52,3.957 9.52,6.545L9.52,57.911C9.52,60.5 11.924,62.602 14.884,62.602L54.029,62.602C56.989,62.602 59.393,60.5 59.393,57.911L59.393,6.545Z"/>
    </g>
    <g transform="matrix(1.72475,0,0,1.72475,-23.1737,-5.23722)">
        <path d="M21.29,35.482L21.829,24.285C21.885,23.594 22.244,23.083 22.908,22.751C23.101,22.668 23.281,22.627 23.447,22.627C24.055,22.627 24.539,23 24.898,23.746C25.064,24.078 25.147,24.396 25.147,24.7L24.981,28.018C24.953,28.432 24.732,29.013 24.318,29.76C24.179,30.064 24.096,30.312 24.069,30.506L23.903,34.031C23.848,34.722 23.405,35.344 22.576,35.897C22.327,36.035 22.147,36.104 22.037,36.104C21.622,36.021 21.373,35.814 21.29,35.482ZM39.413,37.348L22.617,37.348C22.23,37.321 22.023,37.183 21.995,36.934C21.995,36.851 22.23,36.588 22.7,36.146C22.755,36.091 22.797,36.049 22.825,36.021C23.46,35.524 24.013,35.275 24.483,35.275C24.705,35.275 25.161,35.054 25.852,34.611C26.267,34.363 26.64,34.238 26.972,34.238L27.801,34.238C28.326,34.238 28.962,34.39 29.709,34.694C30.04,34.805 30.372,34.86 30.704,34.86C31.119,34.86 31.602,34.708 32.155,34.404C32.376,34.294 32.584,34.238 32.777,34.238L35.68,34.238C36.371,34.238 37.09,34.473 37.837,34.943C37.975,35.026 38.085,35.068 38.168,35.068C38.583,35.068 38.998,35.275 39.413,35.69C39.938,36.243 40.214,36.657 40.242,36.934C40.159,37.155 39.883,37.293 39.413,37.348ZM38.749,33.616L38.873,31.128C38.873,30.852 38.708,30.243 38.376,29.303C38.238,28.889 38.168,28.529 38.168,28.225L38.334,24.908C38.39,23.995 38.915,23.29 39.91,22.793C40.131,22.682 40.311,22.627 40.449,22.627C40.919,22.627 41.306,22.986 41.61,23.705C41.721,23.981 41.776,24.244 41.776,24.493L41.237,34.86C41.154,35.386 40.933,35.662 40.574,35.69C39.883,35.69 39.343,35.275 38.956,34.446C38.818,34.141 38.749,33.865 38.749,33.616ZM38.749,18.687L38.915,15.162C38.943,14.969 39.164,14.443 39.578,13.586C39.772,13.144 39.883,12.771 39.91,12.467L40.035,9.149C40.09,8.624 40.615,8.071 41.61,7.49C41.832,7.352 41.997,7.283 42.108,7.283C42.385,7.283 42.564,7.545 42.647,8.071C42.675,8.154 42.689,8.237 42.689,8.32L42.025,19.931C41.997,20.346 41.68,20.608 41.071,20.719C40.933,20.747 40.809,20.761 40.698,20.761C40.366,20.761 39.91,20.429 39.33,19.765C38.943,19.351 38.749,18.991 38.749,18.687ZM24.483,5.831L40.657,5.831C41.32,5.859 41.666,6.025 41.693,6.329C41.693,6.716 41.334,7.228 40.615,7.863C40.366,8.085 40.173,8.209 40.035,8.237L39.413,8.237C39.164,8.237 38.846,8.375 38.459,8.651C38.265,8.762 38.099,8.817 37.961,8.817L33.607,8.817C33.386,8.817 33.054,8.707 32.611,8.485C32.39,8.375 32.169,8.32 31.948,8.32C31.671,8.32 31.229,8.458 30.621,8.734C30.483,8.79 30.372,8.817 30.289,8.817L27.801,8.817C27.552,8.817 27.137,8.624 26.557,8.237C26.253,8.015 25.976,7.905 25.727,7.905C24.953,7.905 24.359,7.449 23.944,6.536C23.889,6.398 23.861,6.301 23.861,6.246C23.917,5.997 24.124,5.859 24.483,5.831ZM22.161,19.102L22.659,8.734C22.769,7.684 23.004,7.131 23.364,7.075C23.668,7.075 24.055,7.449 24.525,8.195C24.857,8.72 25.022,9.177 25.022,9.564L24.857,12.881C24.857,13.268 25.036,13.835 25.396,14.582C25.589,14.996 25.686,15.397 25.686,15.784L25.562,18.272C25.506,19.157 25.092,19.834 24.318,20.304C24.013,20.47 23.723,20.553 23.447,20.553C22.811,20.553 22.396,20.194 22.203,19.475C22.175,19.364 22.161,19.24 22.161,19.102ZM28.008,23.249L26.101,23.249C25.244,23.249 24.608,22.917 24.193,22.253C24.083,22.005 24.027,21.783 24.027,21.59C24.027,20.926 24.4,20.429 25.147,20.097C25.451,19.986 25.741,19.931 26.018,19.931L28.091,19.931C28.948,19.931 29.557,20.277 29.916,20.968C30.027,21.189 30.082,21.396 30.082,21.59C30.082,22.226 29.695,22.71 28.921,23.041C28.617,23.18 28.312,23.249 28.008,23.249ZM24.152,34.031L24.276,31.335C24.331,30.699 24.58,30.064 25.022,29.428C25.105,29.317 25.175,29.22 25.23,29.137L27.925,24.576C27.981,24.52 28.05,24.424 28.133,24.285C28.603,23.677 28.99,23.359 29.294,23.332C29.46,23.359 29.557,23.636 29.584,24.161L29.377,27.396C29.377,27.506 29.363,27.603 29.335,27.686C29.308,27.769 29.287,27.852 29.273,27.935C29.259,28.018 29.239,28.094 29.211,28.163C29.183,28.232 29.156,28.294 29.128,28.35C29.1,28.405 29.073,28.453 29.045,28.495C29.017,28.536 28.997,28.571 28.983,28.598C28.969,28.626 28.948,28.654 28.921,28.681L28.879,28.723L25.769,34.031C25.465,34.556 25.078,34.833 24.608,34.86C24.331,34.833 24.179,34.556 24.152,34.031ZM30.497,34.446C29.944,34.446 29.46,34.1 29.045,33.409C28.907,33.16 28.838,32.953 28.838,32.787L28.962,30.299C28.99,29.801 29.169,29.082 29.501,28.142C29.612,27.783 29.667,27.396 29.667,26.981L29.75,25.737C29.833,23.995 30.137,23.041 30.662,22.876C30.745,22.848 30.828,22.834 30.911,22.834C31.409,22.834 31.741,23.608 31.906,25.156C31.934,25.378 31.948,25.571 31.948,25.737C31.948,26.069 31.976,26.566 32.031,27.23C32.114,28.032 32.155,28.64 32.155,29.055L32.031,32.787C32.003,33.533 31.671,34.045 31.036,34.321C30.842,34.404 30.662,34.446 30.497,34.446ZM37.049,34.031L32.777,26.566C32.418,25.903 32.238,25.378 32.238,24.99L32.28,24.161C32.363,23.774 32.57,23.567 32.902,23.539L34.063,23.539C34.312,23.539 34.519,23.58 34.685,23.663C34.851,23.746 34.989,23.857 35.1,23.995L35.224,24.161L37.712,28.723C38.265,29.773 38.542,30.547 38.542,31.045L38.417,33.533C38.307,34.169 38.113,34.515 37.837,34.57C37.588,34.57 37.339,34.418 37.09,34.114C37.063,34.086 37.049,34.059 37.049,34.031ZM37.961,23.249L33.98,23.249C33.123,23.249 32.487,22.917 32.072,22.253C31.962,22.005 31.906,21.783 31.906,21.59C31.906,20.926 32.28,20.429 33.026,20.097C33.33,19.986 33.621,19.931 33.897,19.931L38.044,19.931C38.901,19.931 39.509,20.277 39.869,20.968C39.979,21.189 40.035,21.396 40.035,21.59C40.035,22.226 39.648,22.71 38.873,23.041C38.569,23.18 38.265,23.249 37.961,23.249ZM34.561,19.641L33.399,19.641C32.819,19.586 32.515,19.268 32.487,18.687C32.598,17.913 32.902,17.222 33.399,16.614L37.878,9.854C38.348,9.19 38.735,8.845 39.039,8.817C39.454,8.873 39.675,9.356 39.703,10.269L39.578,12.342C39.523,13.061 39.233,13.752 38.708,14.416L35.888,18.894C35.501,19.364 35.058,19.613 34.561,19.641ZM31.202,20.761C30.814,20.761 30.497,20.484 30.248,19.931C30.165,19.765 30.123,19.627 30.123,19.516L30.289,16.614C30.289,16.337 30.151,15.632 29.874,14.499C29.736,13.973 29.667,13.503 29.667,13.089L29.833,10.393C29.888,9.702 30.331,9.19 31.16,8.859C31.381,8.776 31.575,8.734 31.741,8.734C32.294,8.734 32.722,8.997 33.026,9.522C33.137,9.743 33.192,9.965 33.192,10.186L32.902,14.955C32.902,15.038 32.75,15.604 32.446,16.655C32.335,17.097 32.266,17.498 32.238,17.858L32.155,19.309C32.1,19.917 31.879,20.36 31.492,20.636C31.381,20.719 31.284,20.761 31.202,20.761ZM28.382,19.102L25.769,14.416C25.437,13.863 25.271,13.213 25.271,12.467L25.396,9.149C25.506,8.679 25.714,8.403 26.018,8.32C26.294,8.347 26.571,8.624 26.847,9.149L29.128,13.918C29.626,14.803 29.874,15.494 29.874,15.992L29.709,19.102C29.626,19.572 29.46,19.848 29.211,19.931C29.045,19.931 28.782,19.682 28.423,19.185C28.395,19.157 28.382,19.129 28.382,19.102Z" style="fill:rgb(26,26,26);fill-rule:nonzero;"/>
    </g>
    <g transform="matrix(1.72475,0,0,1.72475,-23.1737,-5.23722)">
        <path d="M21.29,35.482L21.829,24.285C21.885,23.594 22.244,23.083 22.908,22.751C23.101,22.668 23.281,22.627 23.447,22.627C24.055,22.627 24.539,23 24.898,23.746C25.064,24.078 25.147,24.396 25.147,24.7L24.981,28.018C24.953,28.432 24.732,29.013 24.318,29.76C24.179,30.064 24.096,30.312 24.069,30.506L23.903,34.031C23.848,34.722 23.405,35.344 22.576,35.897C22.327,36.035 22.147,36.104 22.037,36.104C21.622,36.021 21.373,35.814 21.29,35.482ZM39.413,37.348L22.617,37.348C22.23,37.321 22.023,37.183 21.995,36.934C21.995,36.851 22.23,36.588 22.7,36.146C22.755,36.091 22.797,36.049 22.825,36.021C23.46,35.524 24.013,35.275 24.483,35.275C24.705,35.275 25.161,35.054 25.852,34.611C26.267,34.363 26.64,34.238 26.972,34.238L27.801,34.238C28.326,34.238 28.962,34.39 29.709,34.694C30.04,34.805 30.372,34.86 30.704,34.86C31.119,34.86 31.602,34.708 32.155,34.404C32.376,34.294 32.584,34.238 32.777,34.238L35.68,34.238C36.371,34.238 37.09,34.473 37.837,34.943C37.975,35.026 38.085,35.068 38.168,35.068C38.583,35.068 38.998,35.275 39.413,35.69C39.938,36.243 40.214,36.657 40.242,36.934C40.159,37.155 39.883,37.293 39.413,37.348ZM38.749,18.687L38.915,15.162C38.943,14.969 39.164,14.443 39.578,13.586C39.772,13.144 39.883,12.771 39.91,12.467L40.035,9.149C40.09,8.624 40.615,8.071 41.61,7.49C41.832,7.352 41.997,7.283 42.108,7.283C42.385,7.283 42.564,7.545 42.647,8.071C42.675,8.154 42.689,8.237 42.689,8.32L42.025,19.931C41.997,20.346 41.68,20.608 41.071,20.719C40.933,20.747 40.809,20.761 40.698,20.761C40.366,20.761 39.91,20.429 39.33,19.765C38.943,19.351 38.749,18.991 38.749,18.687ZM24.483,5.831L40.657,5.831C41.32,5.859 41.666,6.025 41.693,6.329C41.693,6.716 41.334,7.228 40.615,7.863C40.366,8.085 40.173,8.209 40.035,8.237L39.413,8.237C39.164,8.237 38.846,8.375 38.459,8.651C38.265,8.762 38.099,8.817 37.961,8.817L33.607,8.817C33.386,8.817 33.054,8.707 32.611,8.485C32.39,8.375 32.169,8.32 31.948,8.32C31.671,8.32 31.229,8.458 30.621,8.734C30.483,8.79 30.372,8.817 30.289,8.817L27.801,8.817C27.552,8.817 27.137,8.624 26.557,8.237C26.253,8.015 25.976,7.905 25.727,7.905C24.953,7.905 24.359,7.449 23.944,6.536C23.889,6.398 23.861,6.301 23.861,6.246C23.917,5.997 24.124,5.859 24.483,5.831ZM28.008,23.249L26.101,23.249C25.244,23.249 24.608,22.917 24.193,22.253C24.083,22.005 24.027,21.783 24.027,21.59C24.027,20.926 24.4,20.429 25.147,20.097C25.451,19.986 25.741,19.931 26.018,19.931L28.091,19.931C28.948,19.931 29.557,20.277 29.916,20.968C30.027,21.189 30.082,21.396 30.082,21.59C30.082,22.226 29.695,22.71 28.921,23.041C28.617,23.18 28.312,23.249 28.008,23.249ZM37.961,23.249L33.98,23.249C33.123,23.249 32.487,22.917 32.072,22.253C31.962,22.005 31.906,21.783 31.906,21.59C31.906,20.926 32.28,20.429 33.026,20.097C33.33,19.986 33.621,19.931 33.897,19.931L38.044,19.931C38.901,19.931 39.509,20.277 39.869,20.968C39.979,21.189 40.035,21.396 40.035,21.59C40.035,22.226 39.648,22.71 38.873,23.041C38.569,23.18 38.265,23.249 37.961,23.249Z" style="fill:rgb(229,242,13);fill-rule:nonzero;"/>
    </g>
</svg>
