<?xml version="1.0" encoding="UTF-8" standalone="no"?>
<!DOCTYPE svg PUBLIC "-//W3C//DTD SVG 1.1//EN" "http://www.w3.org/Graphics/SVG/1.1/DTD/svg11.dtd">
<svg width="100%" height="100%" viewBox="0 0 64 64" version="1.1" xmlns="http://www.w3.org/2000/svg" xmlns:xlink="http://www.w3.org/1999/xlink" xml:space="preserve" xmlns:serif="http://www.serif.com/" style="fill-rule:evenodd;clip-rule:evenodd;stroke-linejoin:round;stroke-miterlimit:2;">
    <rect x="3.939" y="5.074" width="57.377" height="16.284" style="fill:rgb(153,153,153);"/>
    <g transform="matrix(0.883824,0,0,1,0.702148,24.8456)">
        <g transform="matrix(1,0,0,1,51.4179,0.0172571)">
            <rect x="3.939" y="24.883" width="13.225" height="8.654" style="fill:rgb(77,77,77);"/>
        </g>
        <g transform="matrix(1,0,0,1,34.1864,0.0172571)">
            <rect x="3.939" y="24.883" width="13.225" height="8.654" style="fill:rgb(77,77,77);"/>
        </g>
        <g transform="matrix(1,0,0,1,16.9548,0.0172571)">
            <rect x="3.939" y="24.883" width="13.225" height="8.654" style="fill:rgb(77,77,77);"/>
        </g>
        <g transform="matrix(1,0,0,1,-0.276693,0.0172571)">
            <rect x="3.939" y="24.883" width="13.225" height="8.654" style="fill:rgb(77,77,77);"/>
        </g>
    </g>
    <g transform="matrix(0.883824,0,0,1,0.702148,12.4228)">
        <g transform="matrix(1,0,0,1.63359,51.4179,-15.7483)">
            <rect x="3.939" y="24.883" width="13.225" height="8.654" style="fill:rgb(77,77,77);"/>
        </g>
        <g transform="matrix(1,0,0,1,34.1864,0.0172571)">
            <rect x="3.939" y="24.883" width="13.225" height="8.654" style="fill:rgb(77,77,77);"/>
        </g>
        <g transform="matrix(1,0,0,1,16.9548,0.0172571)">
            <rect x="3.939" y="24.883" width="13.225" height="8.654" style="fill:rgb(77,77,77);"/>
        </g>
        <g transform="matrix(1,0,0,1,-0.276693,0.0172571)">
            <rect x="3.939" y="24.883" width="13.225" height="8.654" style="fill:rgb(77,77,77);"/>
        </g>
    </g>
    <g transform="matrix(0.883824,0,0,1,0.702148,0)">
        <g transform="matrix(1,0,0,1,51.4179,0.0172571)">
            <rect x="3.939" y="24.883" width="13.225" height="8.654" style="fill:rgb(77,77,77);"/>
        </g>
        <g transform="matrix(1,0,0,1,34.1864,0.0172571)">
            <rect x="3.939" y="24.883" width="13.225" height="8.654" style="fill:rgb(77,77,77);"/>
        </g>
        <g transform="matrix(1,0,0,1,16.9548,0.0172571)">
            <rect x="3.939" y="24.883" width="13.225" height="8.654" style="fill:rgb(77,77,77);"/>
        </g>
        <g transform="matrix(1,0,0,1,-0.276693,0.0172571)">
            <rect x="3.939" y="24.883" width="13.225" height="8.654" style="fill:rgb(77,77,77);"/>
        </g>
    </g>
</svg>
