<?xml version="1.0" encoding="UTF-8" standalone="no"?>
<!DOCTYPE svg PUBLIC "-//W3C//DTD SVG 1.1//EN" "http://www.w3.org/Graphics/SVG/1.1/DTD/svg11.dtd">
<svg width="100%" height="100%" viewBox="0 0 64 64" version="1.1" xmlns="http://www.w3.org/2000/svg" xmlns:xlink="http://www.w3.org/1999/xlink" xml:space="preserve" xmlns:serif="http://www.serif.com/" style="fill-rule:evenodd;clip-rule:evenodd;stroke-linejoin:round;stroke-miterlimit:2;">
    <path d="M25.176,48.272C25.176,52.667 21.608,56.236 17.212,56.236C12.817,56.236 9.249,52.667 9.249,48.272C9.249,43.877 12.817,40.308 17.212,40.308L17.212,5.252L25.176,5.252L25.176,48.272Z"/>
    <g transform="matrix(1,0,0,1,25.0914,0)">
        <path d="M25.176,48.272C25.176,52.667 21.608,56.236 17.212,56.236C12.817,56.236 9.249,52.667 9.249,48.272C9.249,43.877 12.817,40.308 17.212,40.308L17.212,5.252L25.176,5.252L25.176,48.272Z"/>
    </g>
    <rect x="21.027" y="5.252" width="25.779" height="8.284"/>
</svg>
