<?xml version="1.0" encoding="UTF-8" standalone="no"?>
<!DOCTYPE svg PUBLIC "-//W3C//DTD SVG 1.1//EN" "http://www.w3.org/Graphics/SVG/1.1/DTD/svg11.dtd">
<svg width="100%" height="100%" viewBox="0 0 64 64" version="1.1" xmlns="http://www.w3.org/2000/svg" xmlns:xlink="http://www.w3.org/1999/xlink" xml:space="preserve" xmlns:serif="http://www.serif.com/" style="fill-rule:evenodd;clip-rule:evenodd;stroke-linejoin:round;stroke-miterlimit:2;">
    <path d="M33.754,58.316L30.246,58.316L30.246,22.872L33.754,22.872L33.754,58.316ZM22.522,22.872L13.716,22.872L13.716,48.228C13.716,53.672 17.632,58.114 22.522,58.309L22.522,22.872ZM41.478,22.872L41.478,58.309C46.368,58.114 50.284,53.672 50.284,48.228L50.284,22.872L41.478,22.872Z"/>
    <g transform="matrix(1,0,0,1.14683,-0.355706,-8.56272)">
        <rect x="28.341" y="22.412" width="8.03" height="35.904"/>
    </g>
    <g transform="matrix(1,0,0,1,-0.784906,1.27968)">
        <path d="M32.785,10.88L14.688,2.441L11.699,8.852L32.757,18.672L32.785,18.613L32.812,18.672L53.871,8.852L50.881,2.441L32.785,10.88Z"/>
    </g>
</svg>
